<svg height="100" viewBox="0 0 100 100" width="100" xmlns="http://www.w3.org/2000/svg"><g fill="none" fill-rule="evenodd"><path d="m0 0h100v100h-100z" fill="#fff"/><path d="m92.8571429 7.14285714v85.71428576h-85.71428576v-85.71428576zm7.1428571-7.14285714h-100v100h100z" fill="#999" fill-rule="nonzero"/><path d="m14.2857143 14.2857143h71.4285714v21.4285714h-71.4285714zm0 28.5714286h21.4285714v42.8571428h-21.4285714z" fill="#666" fill-rule="nonzero"/><path d="m42.8571429 42.8571429h42.8571428v42.8571428h-42.8571428z" fill="#b9b9b9"/><g transform="translate(57 57)"><path d="m43 35.8333333c0 3.9416667-3.225 7.1666667-7.1666667 7.1666667h-28.66666663c-3.94166667 0-7.16666667-3.225-7.16666667-7.1666667v-28.66666663c0-3.94166667 3.225-7.16666667 7.16666667-7.16666667h28.66666663c3.9416667 0 7.1666667 3.225 7.1666667 7.16666667z" fill="#563d7c"/><path d="m11 9h12.3299492c2.2741117 0 4.1005077.51120448 5.4720813 1.5406162 1.3715736 1.0294118 2.0609137 2.5770309 2.0609137 4.6568628 0 1.2605042-.3126904 2.3389356-.9380711 3.2352941-.6253807.8963586-1.5208122 1.5966387-2.6862944 2.0868347v.0700281c1.5634518.3291316 2.7502538 1.0574229 3.5532995 2.1848739.8030457 1.1344538 1.2081218 2.5490196 1.2081218 4.2577031 0 .9803921-.177665 1.8977591-.5329949 2.745098-.35533.8543418-.9096447 1.5896359-1.6700508 2.2058824s-1.7269035 1.1064426-2.9137056 1.4705882c-1.186802.3641457-2.5939086.5462185-4.2284264.5462185h-11.6548223zm4.4416244 10.4691877h7.2487309c1.0659899 0 1.9543148-.2941177 2.6649746-.8963586.7106599-.6022409 1.0659899-1.4565826 1.0659899-2.5770308 0-1.2605042-.319797-2.1498599-.9593909-2.6610644s-1.5634517-.7703081-2.7715736-.7703081h-7.2487309zm0 10.9593837h7.8527918c1.3502539 0 2.4020305-.3431372 3.1411168-1.0364145.7461929-.6862745 1.1228426-1.6666667 1.1228426-2.9271709 0-1.2394958-.3695431-2.184874-1.1228426-2.8571429s-1.7908629-.9943977-3.1411168-.9943977h-7.8527918z" fill="#fff" fill-rule="nonzero"/></g></g></svg>